<svg xmlns="http://www.w3.org/2000/svg" width="322" height="72" viewBox="0 0 322 72">
    <path fill="#FFF" fill-rule="evenodd" d="M128.014 13.046c7.259 0 13.143 5.873 13.143 13.117v19.719c0 7.245-5.884 13.118-13.143 13.118H95.205V13.046zm-94.771 0V59H24V13.046h9.243zm41.828 0c7.258 0 13.143 5.873 13.143 13.117V59H78.8V26.163a3.73 3.73 0 0 0-3.73-3.722H54.166a3.73 3.73 0 0 0-3.73 3.722V59h-9.413V26.163c0-7.244 5.884-13.118 13.143-13.118zm80.115.051v14.505a3.731 3.731 0 0 0 3.73 3.723h20.445c2.057 0 3.73-1.67 3.73-3.723V13.097h9.413v32.785c0 7.244-5.884 13.118-13.143 13.118h-31.66v-9.395h31.66c2.057 0 3.73-1.67 3.73-3.723V40.72h-24.175c-7.259 0-13.143-5.873-13.143-13.118V13.097h9.413zm131.254-.051c6.384 0 11.56 5.165 11.56 11.538v22.878C298 53.834 292.824 59 286.44 59h-23.044c-6.384 0-11.56-5.166-11.56-11.538V24.584c0-6.373 5.176-11.539 11.56-11.539zM245.436 32.83v14.587c0 6.372-5.176 11.537-11.56 11.537h-23.044c-6.385 0-11.56-5.165-11.56-11.537V24.538c0-6.372 5.175-11.538 11.56-11.538h33.758v6.187h-33.758c-2.956 0-5.361 2.4-5.361 5.351v22.879c0 2.95 2.405 5.35 5.36 5.35h23.045c2.956 0 5.36-2.4 5.36-5.35V38.94H217.25v-6.11h28.186zm41.004-13.598h-23.044c-2.956 0-5.361 2.4-5.361 5.352v22.878c0 2.95 2.405 5.35 5.361 5.35h11.263l-.001.001h11.782a5.363 5.363 0 0 0 5.356-5.13l.005-.22v-22.88c0-2.95-2.405-5.35-5.361-5.35zm-158.426 3.209h-23.566v27.164h23.566c2.057 0 3.73-1.67 3.73-3.723V26.163a3.73 3.73 0 0 0-3.73-3.722z"/>
</svg>
