<svg xmlns="http://www.w3.org/2000/svg" width="60" height="60" viewBox="0 0 60 60">
    <path fill="#FFF" fill-rule="evenodd" d="M25.044 36.27l-.002-13.582 12.97 6.814-12.968 6.768zM53.52 20.334s-.47-3.33-1.908-4.798c-1.826-1.926-3.872-1.935-4.809-2.047C40.086 13 30.011 13 30.011 13h-.021s-10.076 0-16.793.49c-.939.111-2.983.12-4.81 2.046-1.439 1.467-1.907 4.798-1.907 4.798S6 24.247 6 28.158v3.668c0 3.912.48 7.823.48 7.823s.468 3.331 1.906 4.798c1.828 1.926 4.226 1.866 5.294 2.067C17.52 46.885 30 47 30 47s10.086-.015 16.803-.505c.938-.113 2.983-.122 4.809-2.048 1.438-1.467 1.908-4.798 1.908-4.798s.48-3.91.48-7.823v-3.668c0-3.911-.48-7.824-.48-7.824z"/>
</svg>
