<svg xmlns="http://www.w3.org/2000/svg" width="60" height="60" viewBox="0 0 60 60">
    <path fill="#FFF" fill-rule="nonzero" d="M17 38.9c8.331 0 15.1 6.543 15.1 14.633 0 .17-.003.337-.009.506a1.1 1.1 0 0 1-1.1 1.061H3.009a1.1 1.1 0 0 1-1.1-1.061 14.42 14.42 0 0 1-.008-.506C1.9 45.443 8.669 38.9 17 38.9zm0 2.2c-6.912 0-12.541 5.235-12.884 11.8h25.768C29.54 46.335 23.912 41.1 17 41.1zm0-20.2a8.1 8.1 0 1 1 0 16.2 8.1 8.1 0 0 1 0-16.2zm24.5-18c8.616 0 15.6 6.984 15.6 15.6s-6.984 15.6-15.6 15.6c-2.051 0-4.048-.397-5.904-1.156l-6.147 3.664c-.83.495-1.85-.246-1.636-1.189l1.602-7.053A15.538 15.538 0 0 1 25.9 18.5c0-8.616 6.984-15.6 15.6-15.6zM17 23.1a5.9 5.9 0 1 0 0 11.8 5.9 5.9 0 0 0 0-11.8zm24.5-18c-7.4 0-13.4 6-13.4 13.4 0 3.303 1.198 6.418 3.336 8.847a1.1 1.1 0 0 1 .247.97l-1.156 5.087 4.425-2.638a1.1 1.1 0 0 1 1.017-.057A13.347 13.347 0 0 0 41.5 31.9c7.4 0 13.4-6 13.4-13.4s-6-13.4-13.4-13.4zm-.76 17.316c.417 0 .758.127 1.025.382.266.255.4.579.4.972 0 .386-.13.706-.392.958-.26.251-.605.377-1.032.377-.428 0-.772-.126-1.033-.377a1.275 1.275 0 0 1-.391-.958c0-.393.133-.717.4-.972.266-.255.608-.382 1.024-.382zm.177-10.389c1.242 0 2.206.3 2.891.901.686.6 1.028 1.449 1.028 2.545 0 .498-.11.968-.334 1.41-.222.443-.612.933-1.169 1.472l-.711.677c-.446.428-.7.929-.765 1.503l-.035.536h-2.25c0-.82.1-1.473.299-1.96.199-.486.564-.965 1.094-1.437.53-.471.883-.855 1.059-1.151.176-.296.264-.608.264-.936 0-.99-.457-1.485-1.371-1.485-.434 0-.781.133-1.042.4-.26.266-.397.634-.409 1.102h-2.549c.012-1.119.374-1.995 1.086-2.627.712-.633 1.683-.95 2.914-.95z"/>
</svg>
