<svg xmlns="http://www.w3.org/2000/svg" width="60" height="60" viewBox="0 0 60 60">
    <g fill="none" fill-rule="nonzero">
        <path fill="#000" d="M29.623 5C14.92 5 3 14.435 3 26.073 3 33.598 7.983 40.2 15.48 43.928c-.409 1.412-2.621 9.083-2.71 9.686 0 0-.053.453.24.625.292.173.635.039.635.039.838-.118 9.713-6.376 11.25-7.463 1.534.218 3.114.331 4.728.331 14.704 0 26.623-9.434 26.623-21.073C56.246 14.435 44.326 5 29.623 5z"/>
        <path fill="#FFE812" d="M14.904 33.43c-.847 0-1.536-.66-1.536-1.473v-9.16H10.97a1.51 1.51 0 0 1 0-3.02h7.865a1.51 1.51 0 0 1 0 3.02H16.44v9.16c0 .812-.69 1.473-1.536 1.473zm13.468-.02c-.64 0-1.13-.262-1.278-.682l-.76-1.998H21.65l-.762 2c-.147.419-.636.68-1.277.68-.337 0-.67-.073-.976-.213-.424-.196-.83-.736-.364-2.19l3.674-9.708c.259-.738 1.045-1.499 2.045-1.522 1.003.023 1.79.784 2.049 1.524l3.672 9.703c.468 1.458.06 1.997-.363 2.193-.306.14-.64.213-.976.212zm-2.846-5.412l-1.535-4.375-1.534 4.375h3.069zm6.657 5.207c-.812 0-1.472-.635-1.472-1.414V21.32c0-.85.704-1.542 1.568-1.542.865 0 1.568.691 1.568 1.542v9.059h3.264c.812 0 1.472.634 1.472 1.413 0 .78-.66 1.414-1.472 1.414h-4.928zm8.533.204a1.54 1.54 0 0 1-1.536-1.541v-10.55c0-.85.69-1.541 1.536-1.541a1.54 1.54 0 0 1 1.536 1.542v3.314l4.286-4.302a1.19 1.19 0 0 1 .852-.343c.383 0 .768.166 1.057.455.269.27.43.617.451.978.022.364-.098.697-.339.939l-3.5 3.513 3.78 5.028c.247.326.354.738.296 1.143-.056.405-.27.771-.596 1.016-.266.203-.59.313-.924.312a1.522 1.522 0 0 1-1.227-.613l-3.602-4.792-.533.536v3.364a1.542 1.542 0 0 1-1.537 1.542z"/>
    </g>
</svg>
