<svg xmlns="http://www.w3.org/2000/svg" width="60" height="60" viewBox="0 0 60 60">
    <path fill="#000" fill-rule="nonzero" d="M50 4a6 6 0 0 1 6 6v40a6 6 0 0 1-6 6H10a6 6 0 0 1-6-6V10a6 6 0 0 1 6-6h40zm3.8 16.2H6.2V50a3.8 3.8 0 0 0 3.8 3.8h40a3.8 3.8 0 0 0 3.8-3.8V20.2zM38.778 30.222l6 6a1.1 1.1 0 0 1 0 1.556l-6 6a1.1 1.1 0 0 1-1.556-1.556L42.444 37l-5.222-5.222a1.1 1.1 0 0 1 1.556-1.556zm-16 0a1.1 1.1 0 0 1 0 1.556L17.556 37l5.222 5.222a1.1 1.1 0 0 1-1.556 1.556l-6-6a1.1 1.1 0 0 1 0-1.556l6-6a1.1 1.1 0 0 1 1.556 0zm9.03-.278c.583.17.918.78.748 1.364l-3.5 12a1.1 1.1 0 1 1-2.112-.616l3.5-12a1.1 1.1 0 0 1 1.364-.748zM50 6.2H10A3.8 3.8 0 0 0 6.2 10v7.8h47.6V10A3.8 3.8 0 0 0 50 6.2zM12 11a1 1 0 1 1 0 2 1 1 0 0 1 0-2zm6 0a1 1 0 1 1 0 2 1 1 0 0 1 0-2zm6 0a1 1 0 1 1 0 2 1 1 0 0 1 0-2z"/>
</svg>
