<svg xmlns="http://www.w3.org/2000/svg" width="168" height="60" viewBox="0 0 168 60">
    <g fill="none" fill-rule="nonzero">
        <path fill="#FD517E" d="M76.927 16c-2.91.02-2.93 2.711-2.93 2.711l.059 12.457c0 .098-.059 11.749 11.817 11.73 11.837-.04 11.876-11.632 11.876-11.632l.059-12.535s0-2.711-2.97-2.711c-2.93-.02-2.93 2.672-2.93 2.672l-.038 12.554c.078.079.097 5.836-5.997 5.796-6.075.04-6.055-5.933-6.055-5.933l.059-12.378s-.04-2.711-2.95-2.731zm-16.427.04h-.078c-1.055.019-2.11.157-3.125.451-1.993.59-3.907 1.592-5.313 3.124-2.56 2.358-3.614 5.914-3.536 9.293-.097 2.79.215 5.757 1.778 8.174 1.934 3.36 5.664 5.462 9.512 5.815.235.02.47.02.684.02h.137c.234 0 .468 0 .703-.02 3.848-.353 7.579-2.456 9.512-5.815 1.563-2.417 1.856-5.384 1.778-8.174.078-3.379-.996-6.935-3.536-9.293-1.406-1.532-3.32-2.534-5.313-3.124a12.043 12.043 0 0 0-3.144-.452H60.5zm-34.417 0c-1.23 0-2.46.785-2.91 1.984-.45 1.179.02 2.554.918 3.418 2.832 2.908 5.782 5.737 8.575 8.684l.039 9.706s-.04 3.046 3.047 3.105c3.028-.04 3.067-3.085 3.067-3.085l.058-9.98 8.673-8.685c.957-.806.996-2.2.644-3.3-.664-1.828-3.3-2.476-4.707-1.101-.04.059-7.676 7.682-7.676 7.682l-8.146-7.879a2.583 2.583 0 0 0-1.582-.55zM60.5 22.011c.547 0 1.094.079 1.621.256 1.602.49 3.008 1.65 3.731 3.163.86 1.788.508 5.678.527 5.717.059 2.319-1.562 4.401-3.652 5.325a5.764 5.764 0 0 1-2.227.432 5.932 5.932 0 0 1-2.246-.432c-2.07-.924-3.692-3.006-3.653-5.325.04-.04-.312-3.93.547-5.717.703-1.513 2.11-2.672 3.711-3.163a5.293 5.293 0 0 1 1.641-.256z"/>
        <path fill="#3FAEFB" d="M118.688 16.04c-.625.019-1.25.255-1.719.766-3.574 3.36-6.973 6.915-10.47 10.334-.468.413-.741.982-.995 1.533l-.02-9.746s.04-2.888-3.125-2.868c-3.145-.02-3.125 2.888-3.125 2.888l.02 21.357s.038 2.633 3.105 2.593c2.988.02 3.086-2.574 3.086-2.574s.137-9.823.078-9.823c.45.786 1.094 1.434 1.778 2.043 2.656 2.633 5.274 5.305 7.93 7.918.762.747 1.445 1.611 2.383 2.142 1.895 1.12 4.61-.806 4.22-2.967 0-1.356-1.173-2.2-2.032-3.065-2.266-2.28-4.59-4.539-6.856-6.857v-.55c2.578-2.554 5.156-5.109 7.715-7.682.703-.61 1.27-1.415 1.192-2.397.175-1.749-1.543-3.085-3.165-3.046zm7.188.058c-2.91.02-2.93 2.712-2.93 2.712l.059 12.417c0 .098-.059 11.71 11.837 11.71 11.817-.04 11.856-11.612 11.856-11.612l.078-12.515s0-2.692-2.988-2.692c-2.93-.02-2.93 2.672-2.93 2.672l-.02 12.515c.059.079.079 5.816-6.016 5.777-6.074.039-6.035-5.895-6.035-5.895l.039-12.377s-.02-2.692-2.95-2.712z"/>
    </g>
</svg>
