<svg xmlns="http://www.w3.org/2000/svg" width="16" height="16" viewBox="0 0 16 16">
    <path fill="#A6ADB7" fill-rule="nonzero" d="M11.556.3a.7.7 0 0 1 .693.605l.007.095-.001.3h.967a2.478 2.478 0 0 1 2.473 2.315l.005.163v9.444a2.478 2.478 0 0 1-2.315 2.473l-.163.005H2.778a2.478 2.478 0 0 1-2.473-2.315L.3 13.222V3.778a2.478 2.478 0 0 1 2.315-2.473l.163-.005h.966V1A.7.7 0 0 1 5.138.905L5.144 1v.3h5.711V1a.7.7 0 0 1 .7-.7zM14.3 6.811H1.699l.001 6.411c0 .556.42 1.013.96 1.072l.118.006h10.444c.556 0 1.013-.42 1.072-.96l.006-.118V6.811zm-3 4.589a.7.7 0 0 1 0 1.4H4.7a.7.7 0 0 1 0-1.4h6.6zm0-3a.7.7 0 0 1 0 1.4H4.7a.7.7 0 0 1 0-1.4h6.6zM3.744 2.7h-.966c-.556 0-1.013.42-1.072.96l-.006.118-.001 1.633H14.3V3.778c0-.556-.42-1.013-.96-1.072l-.118-.006h-.967v.856a.7.7 0 0 1-1.393.095l-.006-.095-.001-.856H5.144v.856a.7.7 0 0 1-1.393.095l-.007-.095V2.7z"/>
</svg>
