<svg xmlns="http://www.w3.org/2000/svg" width="648" height="48" viewBox="0 0 648 48">
    <path fill="#FFF" fill-rule="evenodd" d="M156.038.003V32.28c0 3.954 1.413 5.365 5.368 5.365h33.092c3.956 0 5.367-1.41 5.367-5.365V.003h9.272v37.562c0 5.632-4.566 10.195-10.196 10.195h-41.977a10.193 10.193 0 0 1-10.197-10.195V.003h9.271zm105.9 0v10.118H234.84c-3.96 0-5.366 1.409-5.366 5.366V47.76H220.2V10.2c0-5.627 4.565-10.196 10.195-10.196h31.542zM321.783 0c5.632 0 10.195 4.569 10.195 10.196v27.37c0 5.63-4.563 10.195-10.195 10.195h-41.977c-5.63 0-10.197-4.564-10.197-10.196v-27.37C269.61 4.57 274.176 0 279.806 0zm-196.18 0c5.282 0 10.146 3.887 10.146 9.153V21.22c0 5.4-4.332 7.983-10.145 7.983H82.706v3.099c.012 3.918 1.426 5.343 5.363 5.343h47.733V47.76H83.628a10.193 10.193 0 0 1-10.196-10.195v-27.37c0-.348.017-.7.05-1.042C74.007 4.013 78.35 0 83.629 0zm368.19 0c5.277 0 10.138 3.887 10.138 9.153V21.22c0 5.4-4.327 7.983-10.139 7.983H450.89v3.099c.013 3.918 1.426 5.343 5.364 5.343h47.733V47.76H451.81c-5.63 0-10.193-4.563-10.193-10.195v-27.37c0-.348.021-.7.053-1.042.522-5.14 4.86-9.153 10.14-9.153zm143.9 0c5.63 0 10.193 4.566 10.193 10.196V47.76H595.71c-5.275 0-10.138-3.884-10.138-9.154V25.005c0-5.401 4.33-7.982 10.138-7.982h42.904V15.46c-.012-3.917-1.424-5.342-5.364-5.342h-45.266V0zM52.172.003c5.63 0 10.197 4.568 10.197 10.196v37.538H53.1v-32.25c0-3.957-1.412-5.366-5.37-5.366H14.64c-3.958 0-5.369 1.409-5.369 5.367v32.25H.001v-37.54C0 4.572 4.563.004 10.192.004zM381.24 0c2.05 0 3.957.61 5.56 1.658A10.11 10.11 0 0 1 392.358 0h28c5.632 0 10.193 4.568 10.193 10.196v37.542h-9.27V15.482c0-3.954-1.409-5.364-5.369-5.364h-19.111c-3.956 0-5.367 1.41-5.367 5.364v32.256h-9.27V15.482c0-3.954-1.41-5.364-5.369-5.364h-19.113c-3.957 0-5.367 1.41-5.367 5.364v32.256h-9.273V10.196C343.043 4.568 347.608 0 353.24 0zm143.124 0v17.049h25.095L569.934 0h12.254L556.95 21.98l25.238 25.758h-12.254l-20.475-20.46h-25.095v20.46h-9.27V0h9.27zM317.341 10.118h-33.092c-3.96 0-5.365 1.41-5.365 5.364v16.797c0 3.954 1.406 5.365 5.365 5.365h33.092c3.955 0 5.364-1.41 5.364-5.365V15.482c0-3.954-1.409-5.364-5.364-5.364zM638.613 27.14h-38.457c-3.761 0-5.361 1.213-5.365 4.396v1.719c0 2.987 1.84 4.388 5.365 4.388h38.457V27.141zm-517.45-17.023H88.069c-3.954 0-5.363 1.41-5.363 5.364v3.6h38.457c3.762 0 5.362-1.21 5.366-4.395v-.18c0-2.99-1.843-4.39-5.366-4.39zm368.187 0h-33.096c-3.957 0-5.364 1.41-5.364 5.364v3.6h38.46c3.759 0 5.358-1.21 5.365-4.395v-.18c0-2.99-1.844-4.39-5.365-4.39z"/>
</svg>
